<svg xmlns="http://www.w3.org/2000/svg" id="diagram_diagram_svg" width="1056" height="816"><g id="diagram_pageBackground" x="0" y="0" width="1056" height="816" transform="translate(25, 25)"/><g id="diagram_backgroundImageLayer" class="e-background-image-layer" x="0" y="0" width="1106" height="866" transform="translate(25, 25)"/><rect id="diagram_backgroundLayerrect" x="0" y="0" width="1106" height="866" visibility="visible" transform="translate(25, 25)" rx="0" ry="0" opacity="1" aria-label="" pointer-events="none" stroke-width="1" stroke-dasharray="0" fill="white"/><g id="diagram_diagramLayer" transform="translate(25, 25)"><g id="RectangleflmRH_groupElement" transform="translate(0,0)"><rect id="RectangleflmRH" x="101.49999999999999" y="102.50000000000001" width="198.00000000000003" height="197.99999999999997" visibility="visible" transform="rotate(0,200.5,201.5)" rx="0" ry="0" opacity="1" aria-label="RectangleflmRH" stroke="transparent" stroke-width="0" stroke-dasharray="none" fill="transparent"/><g id="RectangleflmRH_content_groupElement"><rect id="RectangleflmRH_content" x="101.49999999999999" y="102.50000000000001" width="198.00000000000003" height="197.99999999999997" visibility="visible" transform="rotate(0,200.5,201.5)" rx="0" ry="0" opacity="1" aria-label="RectangleflmRH" stroke="#3A3A3A" stroke-width="2" stroke-dasharray="none" fill="white"/></g></g><g id="EllipseavywU_groupElement" transform="translate(0,0)"><rect id="EllipseavywU" x="150.5" y="151.5" width="100" height="100" visibility="visible" transform="rotate(0,200.5,201.5)" rx="0" ry="0" opacity="1" aria-label="EllipseavywU" stroke="transparent" stroke-width="0" stroke-dasharray="none" fill="transparent"/><g id="EllipseavywU_content_groupElement"><path d="M100,50 C100,77.61,77.61,100,50,100 C22.39,100,0,77.61,0,50 C0,22.39,22.39,0,50,0 C77.61,0,100,22.39,100,50 Z " id="EllipseavywU_content" transform="rotate(0,200.5,201.5)translate(150.5,151.5)" visibility="visible" opacity="1" aria-label="EllipseavywU" stroke="#3A3A3A" stroke-width="2" stroke-dasharray="none" fill="white"/></g></g></g></svg>